How Do You Know 2010 SWESUB 720p BluRay x264-ASPiRE
 
http://www.imdb.com/title/tt1341188/

Handling:

När Lisa plötsligt förlorar allt inleder hon en romans med baseballstjärnan 
och kvinnokarlen Matty. Innan det hinner bli allvar mellan dem träffar Lisa 
även George - en affärsman som försöker få ordning på sina problem med sin 
far och rättvisan. Precis när allting håller på att rasa samman så händer det 
oväntade...

iNFO:

Genre: Komedi, Drama, Romantik
Regi: James L. Brooks
Medverkande: Reese Witherspoon, Paul Rudd, Owen Wilson, Jack Nicholson
Produktionsland: USA
Språk: Engelska
Text: Svenska

General:
Format                           : Matroska
File size                        : 5.51 GiB
Duration                         : 2h 0mn
Overall bit rate                 : 6 529 Kbps

Video:
ID                               : 1
Format                           : AVC
Format/Info                      : Advanced Video Codec
Format profile                   : High@L4.1
Format settings, CABAC           : Yes
Format settings, ReFrames        : 9 frames
Format settings, GOP             : M=4, N=24
Muxing mode                      : Header stripping
Codec ID                         : V_MPEG4/ISO/AVC
Duration                         : 2h 0mn
Bit rate                         : 5 021 Kbps
Width                            : 1 280 pixels
Height                           : 692 pixels
Display aspect ratio             : 1.850
Frame rate                       : 23.976 fps
Color space                      : YUV
Chroma subsampling               : 4:2:0
Bit depth                        : 8 bits
Scan type                        : Progressive
Bits/(Pixel*Frame)               : 0.236
Stream size                      : 4.12 GiB (75%)
Language                         : English

Audio:
ID                               : 2
Format                           : DTS
Format/Info                      : Digital Theater Systems
Muxing mode                      : Header stripping
Codec ID                         : A_DTS
Duration                         : 2h 0mn
Bit rate mode                    : Constant
Bit rate                         : 1 510 Kbps
Channel(s)                       : 6 channels
Channel positions                : Front: L C R, Side: L R, LFE
Sampling rate                    : 48.0 KHz
Bit depth                        : 24 bits
Compression mode                 : Lossy
Stream size                      : 1.27 GiB (23%)
Title                            : English DTS-HDMA core 5.1 1509Kbps
Language                         : English

Enjoy, ASPiRE